<?xml version="1.0" encoding="UTF-8"?>
<svg xmlns="http://www.w3.org/2000/svg" width="16" height="16" version="1.1" viewBox="0 0 16 16">
  <!-- Generator: Adobe Illustrator 28.6.0, SVG Export Plug-In . SVG Version: 1.2.0 Build 709)  -->
  <g>
    <g id="Livello_1">
      <rect x="13" y="3.4" width=".8" height=".8" fill="#653c3a"/>
      <rect x="13" y="2.7" width=".8" height=".8" fill="#653c3a"/>
      <rect x="13" y="1.9" width=".8" height=".8" fill="#653c3a"/>
      <rect x="13" y="1.1" width=".8" height=".8" fill="#653c3a"/>
      <rect x="12.2" y="11.1" width=".8" height=".8" fill="#653c3a"/>
      <rect x="12.2" y="10.3" width=".8" height=".8" fill="#653c3a"/>
      <rect x="12.2" y="9.5" width=".8" height=".8" fill="#653c3a"/>
      <rect x="12.2" y="8.8" width=".8" height=".8" fill="#653c3a"/>
      <rect x="12.2" y="8" width=".8" height=".8" fill="#653c3a"/>
      <rect x="12.2" y="7.2" width=".8" height=".8" fill="#653c3a"/>
      <rect x="12.2" y="5.7" width=".8" height=".8" fill="#653c3a"/>
      <rect x="12.2" y="4.9" width=".8" height=".8" fill="#653c3a"/>
      <rect x="12.2" y="4.2" width=".8" height=".8" fill="#653c3a"/>
      <rect x="12.2" y="3.4" width=".8" height=".8" fill="#ffd102"/>
      <rect x="12.2" y="2.7" width=".8" height=".8" fill="#fff171"/>
      <rect x="12.2" y="1.9" width=".8" height=".8" fill="#fff171"/>
      <rect x="12.2" y="1.1" width=".8" height=".8" fill="#653c3a"/>
      <rect x="11.4" y="13.3" width=".8" height=".8" fill="#653c3a"/>
      <rect x="11.4" y="12.6" width=".8" height=".8" fill="#653c3a"/>
      <rect x="11.4" y="11.8" width=".8" height=".8" fill="#653c3a"/>
      <rect x="11.4" y="11.1" width=".8" height=".8" fill="#db072f"/>
      <rect x="11.4" y="10.3" width=".8" height=".8" fill="#db072f"/>
      <rect x="11.4" y="9.5" width=".8" height=".8" fill="#db072f"/>
      <rect x="11.4" y="8.8" width=".8" height=".8" fill="#db072f"/>
      <rect x="11.4" y="8" width=".8" height=".8" fill="#db072f"/>
      <rect x="11.4" y="7.2" width=".8" height=".8" fill="#db072f"/>
      <rect x="11.4" y="6.5" width=".8" height=".8" fill="#653c3a"/>
      <rect x="11.4" y="5.7" width=".8" height=".8" fill="#ffd102"/>
      <rect x="11.4" y="4.9" width=".8" height=".8" fill="#fff171"/>
      <rect x="11.4" y="4.2" width=".8" height=".8" fill="#fff171"/>
      <rect x="11.4" y="3.4" width=".8" height=".8" fill="#ffd102"/>
      <rect x="11.4" y="2.7" width=".8" height=".8" fill="#fff171"/>
      <rect x="11.4" y="1.9" width=".8" height=".8" fill="#fff171"/>
      <rect x="11.4" y="1.1" width=".8" height=".8" fill="#653c3a"/>
      <rect x="10.7" y="14.1" width=".8" height=".8" fill="#653c3a"/>
      <rect x="10.7" y="13.3" width=".8" height=".8" fill="#a5ab00"/>
      <rect x="10.7" y="12.6" width=".8" height=".8" fill="#a5ab00"/>
      <rect x="10.7" y="11.8" width=".8" height=".8" fill="#db072f"/>
      <rect x="10.7" y="11.1" width=".8" height=".8" fill="#db072f"/>
      <rect x="10.7" y="10.3" width=".8" height=".8" fill="#db072f"/>
      <rect x="10.7" y="9.5" width=".8" height=".8" fill="#db072f"/>
      <rect x="10.7" y="8.8" width=".8" height=".8" fill="#db072f"/>
      <rect x="10.7" y="8" width=".8" height=".8" fill="#db072f"/>
      <rect x="10.7" y="7.2" width=".8" height=".8" fill="#ffd102"/>
      <rect x="10.7" y="6.5" width=".8" height=".8" fill="#ffd102"/>
      <rect x="10.7" y="5.7" width=".8" height=".8" fill="#ffd102"/>
      <rect x="10.7" y="4.9" width=".8" height=".8" fill="#ffd102"/>
      <rect x="10.7" y="4.2" width=".8" height=".8" fill="#ffd102"/>
      <rect x="10.7" y="3.4" width=".8" height=".8" fill="#ffd102"/>
      <rect x="10.7" y="2.7" width=".8" height=".8" fill="#ff9f02"/>
      <rect x="10.7" y="1.9" width=".8" height=".8" fill="#ff9f02"/>
      <rect x="10.7" y="1.1" width=".8" height=".8" fill="#653c3a"/>
      <rect x="9.9" y="14.1" width=".8" height=".8" fill="#653c3a"/>
      <rect x="9.9" y="13.3" width=".8" height=".8" fill="#a5ab00"/>
      <rect x="9.9" y="12.6" width=".8" height=".8" fill="#a5ab00"/>
      <rect x="9.9" y="11.8" width=".8" height=".8" fill="#db072f"/>
      <rect x="9.9" y="11.1" width=".8" height=".8" fill="#db072f"/>
      <rect x="9.9" y="10.3" width=".8" height=".8" fill="#db072f"/>
      <rect x="9.9" y="9.5" width=".8" height=".8" fill="#db072f"/>
      <rect x="9.9" y="8.8" width=".8" height=".8" fill="#db072f"/>
      <rect x="9.9" y="8" width=".8" height=".8" fill="#db072f"/>
      <rect x="9.9" y="7.2" width=".8" height=".8" fill="#ffd102"/>
      <rect x="9.9" y="6.5" width=".8" height=".8" fill="#fff171"/>
      <rect x="9.9" y="5.7" width=".8" height=".8" fill="#fff171"/>
      <rect x="9.9" y="4.9" width=".8" height=".8" fill="#ff9f02"/>
      <rect x="9.9" y="4.2" width=".8" height=".8" fill="#ff9f02"/>
      <rect x="9.9" y="3.4" width=".8" height=".8" fill="#ea6435"/>
      <rect x="9.9" y="2.7" width=".8" height=".8" fill="#ea6435"/>
      <rect x="9.9" y="1.9" width=".8" height=".8" fill="#653c3a"/>
      <rect x="9.1" y="14.1" width=".8" height=".8" fill="#653c3a"/>
      <rect x="9.1" y="13.3" width=".8" height=".8" fill="#a5ab00"/>
      <rect x="9.1" y="12.6" width=".8" height=".8" fill="#db072f"/>
      <rect x="9.1" y="11.8" width=".8" height=".8" fill="#db072f"/>
      <rect x="9.1" y="11.1" width=".8" height=".8" fill="#f5eee4"/>
      <rect x="9.1" y="10.3" width=".8" height=".8" fill="#f5eee4"/>
      <rect x="9.1" y="9.5" width=".8" height=".8" fill="#f5eee4"/>
      <rect x="9.1" y="8.8" width=".8" height=".8" fill="#ff4c1d"/>
      <rect x="9.1" y="8" width=".8" height=".8" fill="#db072f"/>
      <rect x="9.1" y="7.2" width=".8" height=".8" fill="#ea6435"/>
      <rect x="9.1" y="6.5" width=".8" height=".8" fill="#ea6435"/>
      <rect x="9.1" y="5.7" width=".8" height=".8" fill="#ff9f02"/>
      <rect x="9.1" y="4.9" width=".8" height=".8" fill="#ff9f02"/>
      <rect x="9.1" y="4.2" width=".8" height=".8" fill="#ffd102"/>
      <rect x="9.1" y="3.4" width=".8" height=".8" fill="#ffd102"/>
      <rect x="9.1" y="2.7" width=".8" height=".8" fill="#ff9f02"/>
      <rect x="9.1" y="1.9" width=".8" height=".8" fill="#653c3a"/>
      <rect x="8.4" y="14.1" width=".8" height=".8" fill="#653c3a"/>
      <rect x="8.4" y="13.3" width=".8" height=".8" fill="#a5ab00"/>
      <rect x="8.4" y="12.6" width=".8" height=".8" fill="#ff4c1d"/>
      <rect x="8.4" y="11.8" width=".8" height=".8" fill="#db072f"/>
      <rect x="8.4" y="11.1" width=".8" height=".8" fill="#f2d19c"/>
      <rect x="8.4" y="10.3" width=".8" height=".8" fill="#f5eee4"/>
      <rect x="8.4" y="9.5" width=".8" height=".8" fill="#f5eee4"/>
      <rect x="8.4" y="8.8" width=".8" height=".8" fill="#ff4c1d"/>
      <rect x="8.4" y="8" width=".8" height=".8" fill="#db072f"/>
      <rect x="8.4" y="7.2" width=".8" height=".8" fill="#ffd102"/>
      <rect x="8.4" y="6.5" width=".8" height=".8" fill="#ffd102"/>
      <rect x="8.4" y="5.7" width=".8" height=".8" fill="#ffd102"/>
      <rect x="8.4" y="4.9" width=".8" height=".8" fill="#ff9f02"/>
      <rect x="8.4" y="4.2" width=".8" height=".8" fill="#ff9f02"/>
      <rect x="8.4" y="3.4" width=".8" height=".8" fill="#ff9f02"/>
      <rect x="8.4" y="2.7" width=".8" height=".8" fill="#ff9f02"/>
      <rect x="8.4" y="1.9" width=".8" height=".8" fill="#ff9f02"/>
      <rect x="8.4" y="1.1" width=".8" height=".8" fill="#653c3a"/>
      <rect x="7.6" y="14.1" width=".8" height=".8" fill="#653c3a"/>
      <rect x="7.6" y="13.3" width=".8" height=".8" fill="#cad100"/>
      <rect x="7.6" y="12.6" width=".8" height=".8" fill="#db072f"/>
      <rect x="7.6" y="11.8" width=".8" height=".8" fill="#ff4c1d"/>
      <rect x="7.6" y="11.1" width=".8" height=".8" fill="#f2d19c"/>
      <rect x="7.6" y="10.3" width=".8" height=".8" fill="#f5eee4"/>
      <rect x="7.6" y="9.5" width=".8" height=".8" fill="#f5eee4"/>
      <rect x="7.6" y="8.8" width=".8" height=".8" fill="#ff4c1d"/>
      <rect x="7.6" y="8" width=".8" height=".8" fill="#ff4c1d"/>
      <rect x="7.6" y="7.2" width=".8" height=".8" fill="#ea6435"/>
      <rect x="7.6" y="6.5" width=".8" height=".8" fill="#ff9f02"/>
      <rect x="7.6" y="5.7" width=".8" height=".8" fill="#ea6435"/>
      <rect x="7.6" y="4.9" width=".8" height=".8" fill="#ea6435"/>
      <rect x="7.6" y="4.2" width=".8" height=".8" fill="#ffd102"/>
      <rect x="7.6" y="3.4" width=".8" height=".8" fill="#ffd102"/>
      <rect x="7.6" y="2.7" width=".8" height=".8" fill="#fff171"/>
      <rect x="7.6" y="1.9" width=".8" height=".8" fill="#fff171"/>
      <rect x="7.6" y="1.1" width=".8" height=".8" fill="#653c3a"/>
      <rect x="6.9" y="14.1" width=".8" height=".8" fill="#653c3a"/>
      <rect x="6.9" y="13.3" width=".8" height=".8" fill="#cad100"/>
      <rect x="6.9" y="12.6" width=".8" height=".8" fill="#ff4c1d"/>
      <rect x="6.9" y="11.8" width=".8" height=".8" fill="#ff4c1d"/>
      <rect x="6.9" y="11.1" width=".8" height=".8" fill="#f5eee4"/>
      <rect x="6.9" y="10.3" width=".8" height=".8" fill="#f5eee4"/>
      <rect x="6.9" y="9.5" width=".8" height=".8" fill="#f5eee4"/>
      <rect x="6.9" y="8.8" width=".8" height=".8" fill="#ff4c1d"/>
      <rect x="6.9" y="8" width=".8" height=".8" fill="#ff4c1d"/>
      <rect x="6.9" y="7.2" width=".8" height=".8" fill="#ff9f02"/>
      <rect x="6.9" y="6.5" width=".8" height=".8" fill="#ff9f02"/>
      <rect x="6.9" y="5.7" width=".8" height=".8" fill="#ff9f02"/>
      <rect x="6.9" y="4.9" width=".8" height=".8" fill="#ff9f02"/>
      <rect x="6.9" y="4.2" width=".8" height=".8" fill="#ff9f02"/>
      <rect x="6.9" y="3.4" width=".8" height=".8" fill="#ff9f02"/>
      <rect x="6.9" y="2.7" width=".8" height=".8" fill="#ff9f02"/>
      <rect x="6.9" y="1.9" width=".8" height=".8" fill="#ff9f02"/>
      <rect x="6.9" y="1.1" width=".8" height=".8" fill="#653c3a"/>
      <rect x="6.1" y="14.1" width=".8" height=".8" fill="#653c3a"/>
      <rect x="6.1" y="13.3" width=".8" height=".8" fill="#cad100"/>
      <rect x="6.1" y="12.6" width=".8" height=".8" fill="#ff4c1d"/>
      <rect x="6.1" y="11.8" width=".8" height=".8" fill="#ff4c1d"/>
      <rect x="6.1" y="11.1" width=".8" height=".8" fill="#f5eee4"/>
      <rect x="6.1" y="10.3" width=".8" height=".8" fill="#f5eee4"/>
      <rect x="6.1" y="9.5" width=".8" height=".8" fill="#f5eee4"/>
      <rect x="6.1" y="8.8" width=".8" height=".8" fill="#ff4c1d"/>
      <rect x="6.1" y="8" width=".8" height=".8" fill="#ff4c1d"/>
      <rect x="6.1" y="7.2" width=".8" height=".8" fill="#ea6435"/>
      <rect x="6.1" y="6.5" width=".8" height=".8" fill="#ea6435"/>
      <rect x="6.1" y="5.7" width=".8" height=".8" fill="#ff9f02"/>
      <rect x="6.1" y="4.9" width=".8" height=".8" fill="#ff9f02"/>
      <rect x="6.1" y="4.2" width=".8" height=".8" fill="#ffd102"/>
      <rect x="6.1" y="3.4" width=".8" height=".8" fill="#ffd102"/>
      <rect x="6.1" y="2.7" width=".8" height=".8" fill="#ffd102"/>
      <rect x="6.1" y="1.9" width=".8" height=".8" fill="#653c3a"/>
      <rect x="5.3" y="14.1" width=".8" height=".8" fill="#653c3a"/>
      <rect x="5.3" y="13.3" width=".8" height=".8" fill="#cad100"/>
      <rect x="5.3" y="12.6" width=".8" height=".8" fill="#cad100"/>
      <rect x="5.3" y="11.8" width=".8" height=".8" fill="#ff4c1d"/>
      <rect x="5.3" y="11.1" width=".8" height=".8" fill="#ff4c1d"/>
      <rect x="5.3" y="10.3" width=".8" height=".8" fill="#ff4c1d"/>
      <rect x="5.3" y="9.5" width=".8" height=".8" fill="#ff4c1d"/>
      <rect x="5.3" y="8.8" width=".8" height=".8" fill="#ff4c1d"/>
      <rect x="5.3" y="8" width=".8" height=".8" fill="#ff4c1d"/>
      <rect x="5.3" y="7.2" width=".8" height=".8" fill="#ffd102"/>
      <rect x="5.3" y="6.5" width=".8" height=".8" fill="#ffd102"/>
      <rect x="5.3" y="5.7" width=".8" height=".8" fill="#ff9f02"/>
      <rect x="5.3" y="4.9" width=".8" height=".8" fill="#ff9f02"/>
      <rect x="5.3" y="4.2" width=".8" height=".8" fill="#ffd102"/>
      <rect x="5.3" y="3.4" width=".8" height=".8" fill="#fff171"/>
      <rect x="5.3" y="2.7" width=".8" height=".8" fill="#fff171"/>
      <rect x="5.3" y="1.9" width=".8" height=".8" fill="#653c3a"/>
      <rect x="4.6" y="14.1" width=".8" height=".8" fill="#653c3a"/>
      <rect x="4.6" y="13.3" width=".8" height=".8" fill="#cad100"/>
      <rect x="4.6" y="12.6" width=".8" height=".8" fill="#cad100"/>
      <rect x="4.6" y="11.8" width=".8" height=".8" fill="#ff4c1d"/>
      <rect x="4.6" y="11.1" width=".8" height=".8" fill="#ff4c1d"/>
      <rect x="4.6" y="10.3" width=".8" height=".8" fill="#ffcec1"/>
      <rect x="4.6" y="9.5" width=".8" height=".8" fill="#ffcec1"/>
      <rect x="4.6" y="8.8" width=".8" height=".8" fill="#ffcec1"/>
      <rect x="4.6" y="8" width=".8" height=".8" fill="#ff4c1d"/>
      <rect x="4.6" y="7.2" width=".8" height=".8" fill="#ffd102"/>
      <rect x="4.6" y="6.5" width=".8" height=".8" fill="#ffd102"/>
      <rect x="4.6" y="5.7" width=".8" height=".8" fill="#ffd102"/>
      <rect x="4.6" y="4.9" width=".8" height=".8" fill="#ffd102"/>
      <rect x="4.6" y="4.2" width=".8" height=".8" fill="#ea6435"/>
      <rect x="4.6" y="3.4" width=".8" height=".8" fill="#ea6435"/>
      <rect x="4.6" y="2.7" width=".8" height=".8" fill="#653c3a"/>
      <rect x="3.8" y="13.3" width=".8" height=".8" fill="#653c3a"/>
      <rect x="3.8" y="12.6" width=".8" height=".8" fill="#653c3a"/>
      <rect x="3.8" y="11.8" width=".8" height=".8" fill="#653c3a"/>
      <rect x="3.8" y="11.1" width=".8" height=".8" fill="#ff4c1d"/>
      <rect x="3.8" y="10.3" width=".8" height=".8" fill="#ff4c1d"/>
      <rect x="3.8" y="9.5" width=".8" height=".8" fill="#ff4c1d"/>
      <rect x="3.8" y="8.8" width=".8" height=".8" fill="#ff4c1d"/>
      <rect x="3.8" y="8" width=".8" height=".8" fill="#ff4c1d"/>
      <rect x="3.8" y="7.2" width=".8" height=".8" fill="#ff4c1d"/>
      <rect x="3.8" y="6.5" width=".8" height=".8" fill="#653c3a"/>
      <rect x="3.8" y="5.7" width=".8" height=".8" fill="#fff171"/>
      <rect x="3.8" y="4.9" width=".8" height=".8" fill="#fff171"/>
      <rect x="3.8" y="4.2" width=".8" height=".8" fill="#ffd102"/>
      <rect x="3.8" y="3.4" width=".8" height=".8" fill="#ffd102"/>
      <rect x="3.8" y="2.7" width=".8" height=".8" fill="#ffd102"/>
      <rect x="3.8" y="1.9" width=".8" height=".8" fill="#653c3a"/>
      <rect x="3" y="11.1" width=".8" height=".8" fill="#653c3a"/>
      <rect x="3" y="10.3" width=".8" height=".8" fill="#653c3a"/>
      <rect x="3" y="9.5" width=".8" height=".8" fill="#653c3a"/>
      <rect x="3" y="8.8" width=".8" height=".8" fill="#653c3a"/>
      <rect x="3" y="8" width=".8" height=".8" fill="#653c3a"/>
      <rect x="3" y="7.2" width=".8" height=".8" fill="#653c3a"/>
      <rect x="3" y="5.7" width=".8" height=".8" fill="#653c3a"/>
      <rect x="3" y="4.9" width=".8" height=".8" fill="#653c3a"/>
      <rect x="3" y="4.2" width=".8" height=".8" fill="#653c3a"/>
      <rect x="3" y="3.4" width=".8" height=".8" fill="#fff171"/>
      <rect x="3" y="2.7" width=".8" height=".8" fill="#fff171"/>
      <rect x="3" y="1.9" width=".8" height=".8" fill="#653c3a"/>
      <rect x="2.3" y="3.4" width=".8" height=".8" fill="#653c3a"/>
      <rect x="2.3" y="2.7" width=".8" height=".8" fill="#653c3a"/>
      <rect x="2.3" y="1.9" width=".8" height=".8" fill="#653c3a"/>
    </g>
  </g>
</svg>