<?xml version="1.0" encoding="UTF-8"?>
<svg xmlns="http://www.w3.org/2000/svg" width="16" height="16" version="1.1" viewBox="0 0 16 16">
  <!-- Generator: Adobe Illustrator 28.6.0, SVG Export Plug-In . SVG Version: 1.2.0 Build 709)  -->
  <g>
    <g id="Livello_1">
      <rect x="13.9" y="7.6" width=".7" height=".7" fill="#653c3a"/>
      <rect x="13.9" y="6.9" width=".7" height=".7" fill="#653c3a"/>
      <rect x="13.9" y="6.1" width=".7" height=".7" fill="#653c3a"/>
      <rect x="13.9" y="5.4" width=".7" height=".7" fill="#653c3a"/>
      <rect x="13.2" y="9.1" width=".7" height=".7" fill="#653c3a"/>
      <rect x="13.2" y="8.4" width=".7" height=".7" fill="#653c3a"/>
      <rect x="13.2" y="7.6" width=".7" height=".7" fill="#ea6435"/>
      <rect x="13.2" y="6.9" width=".7" height=".7" fill="#653c3a"/>
      <rect x="13.2" y="6.1" width=".7" height=".7" fill="#653c3a"/>
      <rect x="13.2" y="5.4" width=".7" height=".7" fill="#ff9f02"/>
      <rect x="13.2" y="4.7" width=".7" height=".7" fill="#653c3a"/>
      <rect x="13.2" y="3.9" width=".7" height=".7" fill="#653c3a"/>
      <rect x="12.4" y="12.1" width=".7" height=".7" fill="#653c3a"/>
      <rect x="12.4" y="11.3" width=".7" height=".7" fill="#653c3a"/>
      <rect x="12.4" y="10.6" width=".7" height=".7" fill="#653c3a"/>
      <rect x="12.4" y="9.9" width=".7" height=".7" fill="#653c3a"/>
      <rect x="12.4" y="9.1" width=".7" height=".7" fill="#653c3a"/>
      <rect x="12.4" y="8.4" width=".7" height=".7" fill="#ea6435"/>
      <rect x="12.4" y="7.6" width=".7" height=".7" fill="#ea6435"/>
      <rect x="12.4" y="6.9" width=".7" height=".7" fill="#653c3a"/>
      <rect x="12.4" y="6.1" width=".7" height=".7" fill="#653c3a"/>
      <rect x="12.4" y="5.4" width=".7" height=".7" fill="#ff9f02"/>
      <rect x="12.4" y="4.7" width=".7" height=".7" fill="#ea6435"/>
      <rect x="12.4" y="3.9" width=".7" height=".7" fill="#653c3a"/>
      <rect x="11.7" y="12.8" width=".7" height=".7" fill="#653c3a"/>
      <rect x="11.7" y="12.1" width=".7" height=".7" fill="#e8b877"/>
      <rect x="11.7" y="11.3" width=".7" height=".7" fill="#e8b877"/>
      <rect x="11.7" y="10.6" width=".7" height=".7" fill="#e8b877"/>
      <rect x="11.7" y="9.9" width=".7" height=".7" fill="#653c3a"/>
      <rect x="11.7" y="9.1" width=".7" height=".7" fill="#ea6435"/>
      <rect x="11.7" y="8.4" width=".7" height=".7" fill="#ea6435"/>
      <rect x="11.7" y="7.6" width=".7" height=".7" fill="#ea6435"/>
      <rect x="11.7" y="6.9" width=".7" height=".7" fill="#ea6435"/>
      <rect x="11.7" y="6.1" width=".7" height=".7" fill="#ff9f02"/>
      <rect x="11.7" y="5.4" width=".7" height=".7" fill="#ff9f02"/>
      <rect x="11.7" y="4.7" width=".7" height=".7" fill="#ea6435"/>
      <rect x="11.7" y="3.9" width=".7" height=".7" fill="#ea6435"/>
      <rect x="11.7" y="3.2" width=".7" height=".7" fill="#653c3a"/>
      <rect x="11.7" y="2.4" width=".7" height=".7" fill="#653c3a"/>
      <rect x="11" y="13.6" width=".7" height=".7" fill="#653c3a"/>
      <rect x="11" y="12.8" width=".7" height=".7" fill="#653c3a"/>
      <rect x="11" y="12.1" width=".7" height=".7" fill="#e8b877"/>
      <rect x="11" y="11.3" width=".7" height=".7" fill="#e8b877"/>
      <rect x="11" y="10.6" width=".7" height=".7" fill="#e8b877"/>
      <rect x="11" y="9.9" width=".7" height=".7" fill="#653c3a"/>
      <rect x="11" y="9.1" width=".7" height=".7" fill="#653c3a"/>
      <rect x="11" y="8.4" width=".7" height=".7" fill="#ff9f02"/>
      <rect x="11" y="7.6" width=".7" height=".7" fill="#ea6435"/>
      <rect x="11" y="6.9" width=".7" height=".7" fill="#ea6435"/>
      <rect x="11" y="6.1" width=".7" height=".7" fill="#ff9f02"/>
      <rect x="11" y="5.4" width=".7" height=".7" fill="#ff9f02"/>
      <rect x="11" y="4.7" width=".7" height=".7" fill="#653c3a"/>
      <rect x="11" y="3.9" width=".7" height=".7" fill="#ff9f02"/>
      <rect x="11" y="3.2" width=".7" height=".7" fill="#653c3a"/>
      <rect x="11" y="2.4" width=".7" height=".7" fill="#653c3a"/>
      <rect x="10.2" y="13.6" width=".7" height=".7" fill="#653c3a"/>
      <rect x="10.2" y="12.8" width=".7" height=".7" fill="#e8b877"/>
      <rect x="10.2" y="12.1" width=".7" height=".7" fill="#e8b877"/>
      <rect x="10.2" y="11.3" width=".7" height=".7" fill="#e8b877"/>
      <rect x="10.2" y="10.6" width=".7" height=".7" fill="#e8b877"/>
      <rect x="10.2" y="9.9" width=".7" height=".7" fill="#653c3a"/>
      <rect x="10.2" y="9.1" width=".7" height=".7" fill="#653c3a"/>
      <rect x="10.2" y="8.4" width=".7" height=".7" fill="#ff9f02"/>
      <rect x="10.2" y="7.6" width=".7" height=".7" fill="#ff9f02"/>
      <rect x="10.2" y="6.9" width=".7" height=".7" fill="#ff9f02"/>
      <rect x="10.2" y="6.1" width=".7" height=".7" fill="#653c3a"/>
      <rect x="10.2" y="5.4" width=".7" height=".7" fill="#ff9f02"/>
      <rect x="10.2" y="4.7" width=".7" height=".7" fill="#ffd102"/>
      <rect x="10.2" y="3.9" width=".7" height=".7" fill="#ff9f02"/>
      <rect x="10.2" y="3.2" width=".7" height=".7" fill="#ff9f02"/>
      <rect x="10.2" y="2.4" width=".7" height=".7" fill="#ffd102"/>
      <rect x="10.2" y="1.7" width=".7" height=".7" fill="#653c3a"/>
      <rect x="9.5" y="13.6" width=".7" height=".7" fill="#653c3a"/>
      <rect x="9.5" y="12.8" width=".7" height=".7" fill="#e8b877"/>
      <rect x="9.5" y="12.1" width=".7" height=".7" fill="#f9daa2"/>
      <rect x="9.5" y="11.3" width=".7" height=".7" fill="#f9daa2"/>
      <rect x="9.5" y="10.6" width=".7" height=".7" fill="#653c3a"/>
      <rect x="9.5" y="9.9" width=".7" height=".7" fill="#ea6435"/>
      <rect x="9.5" y="9.1" width=".7" height=".7" fill="#ea6435"/>
      <rect x="9.5" y="8.4" width=".7" height=".7" fill="#ff9f02"/>
      <rect x="9.5" y="7.6" width=".7" height=".7" fill="#ff9f02"/>
      <rect x="9.5" y="6.9" width=".7" height=".7" fill="#ff9f02"/>
      <rect x="9.5" y="6.1" width=".7" height=".7" fill="#653c3a"/>
      <rect x="9.5" y="5.4" width=".7" height=".7" fill="#653c3a"/>
      <rect x="9.5" y="4.7" width=".7" height=".7" fill="#ff9f02"/>
      <rect x="9.5" y="3.9" width=".7" height=".7" fill="#ff9f02"/>
      <rect x="9.5" y="3.2" width=".7" height=".7" fill="#ffd102"/>
      <rect x="9.5" y="2.4" width=".7" height=".7" fill="#ffd102"/>
      <rect x="9.5" y="1.7" width=".7" height=".7" fill="#653c3a"/>
      <rect x="8.7" y="13.6" width=".7" height=".7" fill="#653c3a"/>
      <rect x="8.7" y="12.8" width=".7" height=".7" fill="#e8b877"/>
      <rect x="8.7" y="12.1" width=".7" height=".7" fill="#e8b877"/>
      <rect x="8.7" y="11.3" width=".7" height=".7" fill="#e8b877"/>
      <rect x="8.7" y="10.6" width=".7" height=".7" fill="#653c3a"/>
      <rect x="8.7" y="9.9" width=".7" height=".7" fill="#ea6435"/>
      <rect x="8.7" y="9.1" width=".7" height=".7" fill="#ea6435"/>
      <rect x="8.7" y="8.4" width=".7" height=".7" fill="#ea6435"/>
      <rect x="8.7" y="7.6" width=".7" height=".7" fill="#ff9f02"/>
      <rect x="8.7" y="6.9" width=".7" height=".7" fill="#ff9f02"/>
      <rect x="8.7" y="6.1" width=".7" height=".7" fill="#653c3a"/>
      <rect x="8.7" y="5.4" width=".7" height=".7" fill="#653c3a"/>
      <rect x="8.7" y="4.7" width=".7" height=".7" fill="#ff9f02"/>
      <rect x="8.7" y="3.9" width=".7" height=".7" fill="#ff9f02"/>
      <rect x="8.7" y="3.2" width=".7" height=".7" fill="#ffd102"/>
      <rect x="8.7" y="2.4" width=".7" height=".7" fill="#ffd102"/>
      <rect x="8.7" y="1.7" width=".7" height=".7" fill="#653c3a"/>
      <rect x="8" y="13.6" width=".7" height=".7" fill="#653c3a"/>
      <rect x="8" y="12.8" width=".7" height=".7" fill="#e8b877"/>
      <rect x="8" y="12.1" width=".7" height=".7" fill="#f9daa2"/>
      <rect x="8" y="11.3" width=".7" height=".7" fill="#f9daa2"/>
      <rect x="8" y="10.6" width=".7" height=".7" fill="#653c3a"/>
      <rect x="8" y="9.9" width=".7" height=".7" fill="#ea6435"/>
      <rect x="8" y="9.1" width=".7" height=".7" fill="#ea6435"/>
      <rect x="8" y="8.4" width=".7" height=".7" fill="#ea6435"/>
      <rect x="8" y="7.6" width=".7" height=".7" fill="#ff9f02"/>
      <rect x="8" y="6.9" width=".7" height=".7" fill="#ff9f02"/>
      <rect x="8" y="6.1" width=".7" height=".7" fill="#ff9f02"/>
      <rect x="8" y="5.4" width=".7" height=".7" fill="#ff9f02"/>
      <rect x="8" y="4.7" width=".7" height=".7" fill="#ff9f02"/>
      <rect x="8" y="3.9" width=".7" height=".7" fill="#ff9f02"/>
      <rect x="8" y="3.2" width=".7" height=".7" fill="#ff9f02"/>
      <rect x="8" y="2.4" width=".7" height=".7" fill="#ffd102"/>
      <rect x="8" y="1.7" width=".7" height=".7" fill="#653c3a"/>
      <rect x="7.3" y="13.6" width=".7" height=".7" fill="#653c3a"/>
      <rect x="7.3" y="12.8" width=".7" height=".7" fill="#653c3a"/>
      <rect x="7.3" y="12.1" width=".7" height=".7" fill="#f9daa2"/>
      <rect x="7.3" y="11.3" width=".7" height=".7" fill="#f9daa2"/>
      <rect x="7.3" y="10.6" width=".7" height=".7" fill="#653c3a"/>
      <rect x="7.3" y="9.9" width=".7" height=".7" fill="#ea6435"/>
      <rect x="7.3" y="9.1" width=".7" height=".7" fill="#ea6435"/>
      <rect x="7.3" y="8.4" width=".7" height=".7" fill="#ea6435"/>
      <rect x="7.3" y="7.6" width=".7" height=".7" fill="#ff9f02"/>
      <rect x="7.3" y="6.9" width=".7" height=".7" fill="#ff9f02"/>
      <rect x="7.3" y="6.1" width=".7" height=".7" fill="#ff9f02"/>
      <rect x="7.3" y="5.4" width=".7" height=".7" fill="#ff9f02"/>
      <rect x="7.3" y="4.7" width=".7" height=".7" fill="#ff9f02"/>
      <rect x="7.3" y="3.9" width=".7" height=".7" fill="#653c3a"/>
      <rect x="7.3" y="3.2" width=".7" height=".7" fill="#ffd102"/>
      <rect x="7.3" y="2.4" width=".7" height=".7" fill="#ffd102"/>
      <rect x="7.3" y="1.7" width=".7" height=".7" fill="#653c3a"/>
      <rect x="6.5" y="13.6" width=".7" height=".7" fill="#653c3a"/>
      <rect x="6.5" y="12.8" width=".7" height=".7" fill="#e8b877"/>
      <rect x="6.5" y="12.1" width=".7" height=".7" fill="#f9daa2"/>
      <rect x="6.5" y="11.3" width=".7" height=".7" fill="#f9daa2"/>
      <rect x="6.5" y="10.6" width=".7" height=".7" fill="#653c3a"/>
      <rect x="6.5" y="9.9" width=".7" height=".7" fill="#653c3a"/>
      <rect x="6.5" y="9.1" width=".7" height=".7" fill="#ea6435"/>
      <rect x="6.5" y="8.4" width=".7" height=".7" fill="#ff9f02"/>
      <rect x="6.5" y="7.6" width=".7" height=".7" fill="#ff9f02"/>
      <rect x="6.5" y="6.9" width=".7" height=".7" fill="#ff9f02"/>
      <rect x="6.5" y="6.1" width=".7" height=".7" fill="#ff9f02"/>
      <rect x="6.5" y="5.4" width=".7" height=".7" fill="#ff9f02"/>
      <rect x="6.5" y="4.7" width=".7" height=".7" fill="#ff9f02"/>
      <rect x="6.5" y="3.9" width=".7" height=".7" fill="#ff9f02"/>
      <rect x="6.5" y="3.2" width=".7" height=".7" fill="#ff9f02"/>
      <rect x="6.5" y="2.4" width=".7" height=".7" fill="#ffd102"/>
      <rect x="6.5" y="1.7" width=".7" height=".7" fill="#653c3a"/>
      <rect x="5.8" y="13.6" width=".7" height=".7" fill="#653c3a"/>
      <rect x="5.8" y="12.8" width=".7" height=".7" fill="#653c3a"/>
      <rect x="5.8" y="12.1" width=".7" height=".7" fill="#653c3a"/>
      <rect x="5.8" y="11.3" width=".7" height=".7" fill="#f9daa2"/>
      <rect x="5.8" y="10.6" width=".7" height=".7" fill="#653c3a"/>
      <rect x="5.8" y="9.9" width=".7" height=".7" fill="#653c3a"/>
      <rect x="5.8" y="9.1" width=".7" height=".7" fill="#653c3a"/>
      <rect x="5.8" y="8.4" width=".7" height=".7" fill="#ff9f02"/>
      <rect x="5.8" y="7.6" width=".7" height=".7" fill="#ff9f02"/>
      <rect x="5.8" y="6.9" width=".7" height=".7" fill="#653c3a"/>
      <rect x="5.8" y="6.1" width=".7" height=".7" fill="#653c3a"/>
      <rect x="5.8" y="5.4" width=".7" height=".7" fill="#ff9f02"/>
      <rect x="5.8" y="4.7" width=".7" height=".7" fill="#ff9f02"/>
      <rect x="5.8" y="3.9" width=".7" height=".7" fill="#ffd102"/>
      <rect x="5.8" y="3.2" width=".7" height=".7" fill="#653c3a"/>
      <rect x="5.8" y="2.4" width=".7" height=".7" fill="#653c3a"/>
      <rect x="5.8" y="1.7" width=".7" height=".7" fill="#653c3a"/>
      <rect x="5" y="13.6" width=".7" height=".7" fill="#653c3a"/>
      <rect x="5" y="12.8" width=".7" height=".7" fill="#e8b877"/>
      <rect x="5" y="12.1" width=".7" height=".7" fill="#f9daa2"/>
      <rect x="5" y="11.3" width=".7" height=".7" fill="#f9daa2"/>
      <rect x="5" y="10.6" width=".7" height=".7" fill="#f9daa2"/>
      <rect x="5" y="9.9" width=".7" height=".7" fill="#653c3a"/>
      <rect x="5" y="9.1" width=".7" height=".7" fill="#ea6435"/>
      <rect x="5" y="8.4" width=".7" height=".7" fill="#ff9f02"/>
      <rect x="5" y="7.6" width=".7" height=".7" fill="#ff9f02"/>
      <rect x="5" y="6.9" width=".7" height=".7" fill="#653c3a"/>
      <rect x="5" y="6.1" width=".7" height=".7" fill="#653c3a"/>
      <rect x="5" y="5.4" width=".7" height=".7" fill="#653c3a"/>
      <rect x="5" y="4.7" width=".7" height=".7" fill="#ff9f02"/>
      <rect x="5" y="3.9" width=".7" height=".7" fill="#ff9f02"/>
      <rect x="5" y="3.2" width=".7" height=".7" fill="#653c3a"/>
      <rect x="5" y="2.4" width=".7" height=".7" fill="#653c3a"/>
      <rect x="5" y="1.7" width=".7" height=".7" fill="#653c3a"/>
      <rect x="4.3" y="13.6" width=".7" height=".7" fill="#653c3a"/>
      <rect x="4.3" y="12.8" width=".7" height=".7" fill="#653c3a"/>
      <rect x="4.3" y="12.1" width=".7" height=".7" fill="#653c3a"/>
      <rect x="4.3" y="11.3" width=".7" height=".7" fill="#653c3a"/>
      <rect x="4.3" y="10.6" width=".7" height=".7" fill="#653c3a"/>
      <rect x="4.3" y="9.9" width=".7" height=".7" fill="#653c3a"/>
      <rect x="4.3" y="9.1" width=".7" height=".7" fill="#ea6435"/>
      <rect x="4.3" y="8.4" width=".7" height=".7" fill="#ea6435"/>
      <rect x="4.3" y="7.6" width=".7" height=".7" fill="#ff9f02"/>
      <rect x="4.3" y="6.9" width=".7" height=".7" fill="#ea6435"/>
      <rect x="4.3" y="6.1" width=".7" height=".7" fill="#ff9f02"/>
      <rect x="4.3" y="5.4" width=".7" height=".7" fill="#ff9f02"/>
      <rect x="4.3" y="4.7" width=".7" height=".7" fill="#ff9f02"/>
      <rect x="4.3" y="3.9" width=".7" height=".7" fill="#ea6435"/>
      <rect x="4.3" y="3.2" width=".7" height=".7" fill="#ea6435"/>
      <rect x="4.3" y="2.4" width=".7" height=".7" fill="#653c3a"/>
      <rect x="3.6" y="12.8" width=".7" height=".7" fill="#653c3a"/>
      <rect x="3.6" y="12.1" width=".7" height=".7" fill="#e8b877"/>
      <rect x="3.6" y="11.3" width=".7" height=".7" fill="#e8b877"/>
      <rect x="3.6" y="10.6" width=".7" height=".7" fill="#e8b877"/>
      <rect x="3.6" y="9.9" width=".7" height=".7" fill="#653c3a"/>
      <rect x="3.6" y="9.1" width=".7" height=".7" fill="#ea6435"/>
      <rect x="3.6" y="8.4" width=".7" height=".7" fill="#ea6435"/>
      <rect x="3.6" y="7.6" width=".7" height=".7" fill="#ff9f02"/>
      <rect x="3.6" y="6.9" width=".7" height=".7" fill="#ea6435"/>
      <rect x="3.6" y="6.1" width=".7" height=".7" fill="#ea6435"/>
      <rect x="3.6" y="5.4" width=".7" height=".7" fill="#ff9f02"/>
      <rect x="3.6" y="4.7" width=".7" height=".7" fill="#ff9f02"/>
      <rect x="3.6" y="3.9" width=".7" height=".7" fill="#ea6435"/>
      <rect x="3.6" y="3.2" width=".7" height=".7" fill="#653c3a"/>
      <rect x="3.6" y="2.4" width=".7" height=".7" fill="#653c3a"/>
      <rect x="2.8" y="12.1" width=".7" height=".7" fill="#653c3a"/>
      <rect x="2.8" y="11.3" width=".7" height=".7" fill="#653c3a"/>
      <rect x="2.8" y="10.6" width=".7" height=".7" fill="#653c3a"/>
      <rect x="2.8" y="9.9" width=".7" height=".7" fill="#653c3a"/>
      <rect x="2.8" y="9.1" width=".7" height=".7" fill="#653c3a"/>
      <rect x="2.8" y="8.4" width=".7" height=".7" fill="#ea6435"/>
      <rect x="2.8" y="7.6" width=".7" height=".7" fill="#653c3a"/>
      <rect x="2.8" y="6.9" width=".7" height=".7" fill="#653c3a"/>
      <rect x="2.8" y="6.1" width=".7" height=".7" fill="#ea6435"/>
      <rect x="2.8" y="5.4" width=".7" height=".7" fill="#ff9f02"/>
      <rect x="2.8" y="4.7" width=".7" height=".7" fill="#ff9f02"/>
      <rect x="2.8" y="3.9" width=".7" height=".7" fill="#653c3a"/>
      <rect x="2.1" y="9.1" width=".7" height=".7" fill="#653c3a"/>
      <rect x="2.1" y="8.4" width=".7" height=".7" fill="#653c3a"/>
      <rect x="2.1" y="7.6" width=".7" height=".7" fill="#653c3a"/>
      <rect x="2.1" y="6.9" width=".7" height=".7" fill="#653c3a"/>
      <rect x="2.1" y="6.1" width=".7" height=".7" fill="#ea6435"/>
      <rect x="2.1" y="5.4" width=".7" height=".7" fill="#ea6435"/>
      <rect x="2.1" y="4.7" width=".7" height=".7" fill="#653c3a"/>
      <rect x="2.1" y="3.9" width=".7" height=".7" fill="#653c3a"/>
      <rect x="1.3" y="7.6" width=".7" height=".7" fill="#653c3a"/>
      <rect x="1.3" y="6.9" width=".7" height=".7" fill="#653c3a"/>
      <rect x="1.3" y="6.1" width=".7" height=".7" fill="#653c3a"/>
      <rect x="1.3" y="5.4" width=".7" height=".7" fill="#653c3a"/>
    </g>
  </g>
</svg>